HIERARCHY
ROOT reference
{
  OFFSET 0 0 0
  CHANNELS 6 Xposition Yposition Zposition Zrotation Xrotation Yrotation
  JOINT Hips
  {
    OFFSET 0.943544 84.9028 18.8381
    CHANNELS 6 Xposition Yposition Zposition Zrotation Xrotation Yrotation
    JOINT Spine
    {
      OFFSET 0 7.59534 0
      CHANNELS 6 Xposition Yposition Zposition Zrotation Xrotation Yrotation
      JOINT Spine1
      {
        OFFSET 0 23.5015 0
        CHANNELS 6 Xposition Yposition Zposition Zrotation Xrotation Yrotation
        JOINT Neck
        {
          OFFSET 0 23.405 2.12773
          CHANNELS 6 Xposition Yposition Zposition Zrotation Xrotation Yrotation
          JOINT Head
          {
            OFFSET 0 12.9677 -1.85252
            CHANNELS 6 Xposition Yposition Zposition Zrotation Xrotation Yrotation
            End Site
            {
              OFFSET 0 23.1565 0
            }
          }
        }
        JOINT LeftShoulder
        {
          OFFSET 3.62206 22.4732 -0.132728
          CHANNELS 6 Xposition Yposition Zposition Zrotation Xrotation Yrotation
          JOINT LeftArm
          {
            OFFSET 8.17784 0 0
            CHANNELS 6 Xposition Yposition Zposition Zrotation Xrotation Yrotation
            JOINT LeftForeArm
            {
              OFFSET 30.104 0 0
              CHANNELS 6 Xposition Yposition Zposition Zrotation Xrotation Yrotation
              JOINT LeftHand
              {
                OFFSET 24.4664 0 0
                CHANNELS 6 Xposition Yposition Zposition Zrotation Xrotation Yrotation
                End Site
                {
                  OFFSET 13.8939 0 0
                }
              }
            }
          }
        }
        JOINT RightShoulder
        {
          OFFSET -3.6336 22.4732 -0.132728
          CHANNELS 6 Xposition Yposition Zposition Zrotation Xrotation Yrotation
          JOINT RightArm
          {
            OFFSET -8.17784 0 0
            CHANNELS 6 Xposition Yposition Zposition Zrotation Xrotation Yrotation
            JOINT RightForeArm
            {
              OFFSET -30.104 0 0
              CHANNELS 6 Xposition Yposition Zposition Zrotation Xrotation Yrotation
              JOINT RightHand
              {
                OFFSET -24.4664 0 0
                CHANNELS 6 Xposition Yposition Zposition Zrotation Xrotation Yrotation
                End Site
                {
                  OFFSET -13.8939 0 0
                }
              }
            }
          }
        }
      }
    }
    JOINT LeftUpLeg
    {
      OFFSET 9.26261 0 0
      CHANNELS 6 Xposition Yposition Zposition Zrotation Xrotation Yrotation
      JOINT LeftLeg
      {
        OFFSET 0 -35.4897 0
        CHANNELS 6 Xposition Yposition Zposition Zrotation Xrotation Yrotation
        JOINT LeftFoot
        {
          OFFSET 0 -38.2023 0
          CHANNELS 6 Xposition Yposition Zposition Zrotation Xrotation Yrotation
          JOINT LeftToeBase
          {
            OFFSET 0 -6.0207 13.8939
            CHANNELS 6 Xposition Yposition Zposition Zrotation Xrotation Yrotation
            End Site
            {
              OFFSET 0 0 3.70504
            }
          }
        }
      }
    }
    JOINT RightUpLeg
    {
      OFFSET -9.26261 0 0
      CHANNELS 6 Xposition Yposition Zposition Zrotation Xrotation Yrotation
      JOINT RightLeg
      {
        OFFSET 0 -35.4897 0
        CHANNELS 6 Xposition Yposition Zposition Zrotation Xrotation Yrotation
        JOINT RightFoot
        {
          OFFSET 0 -38.2023 0
          CHANNELS 6 Xposition Yposition Zposition Zrotation Xrotation Yrotation
          JOINT RightToeBase
          {
            OFFSET 0 -6.0207 13.8939
            CHANNELS 6 Xposition Yposition Zposition Zrotation Xrotation Yrotation
            End Site
            {
              OFFSET 0 0 3.70504
            }
          }
        }
      }
    }
  }
}
MOTION
Frames:	5
Frame Time:	0.004
0 0 0 0 0 -0 -15.8528 75.4773 -222.24 0.105336 -0.228191 -4.45313 0 7.59534 0 -0.076087 -6.85948 0.025114 0 23.5015 -2.84217e-014 0.912559 -1.23091 0.043364 0 23.405 2.12773 -3.07426 24.2688 -3.63704 7.10543e-015 12.9677 -1.85252 0.467195 1.07464 -3.97489 3.62206 22.4732 -0.132728 12.5222 1.93323 13.8493 8.17784 2.84217e-014 2.84217e-014 -18.6244 4.67753 -4.82737 30.104 0 0 2.04767 0.345745 -1.17696 24.4664 0 0 -1.63026 0.400425 -2.35396 -3.6336 22.4732 -0.132728 -8.71223 2.12312 19.198 -8.17784 0 0 15.6389 -0.00377 -3.0093 -30.104 0 0 -2.19 0.95832 2.48326 -24.4664 -2.84217e-014 0 -1.202 0.996638 0.875639 9.26261 0 0 2.25013 10.9405 -1.84855 0 -35.4897 0 -0.828189 -6.81969 -2.85349 0 -38.2023 -2.84217e-014 -0.158342 -3.70141 16.8682 3.55271e-015 -6.0207 13.8939 -4.96962e-017 0 -0 -9.26261 -1.42109e-014 -2.84217e-014 -2.86213 1.11226 0.892911 0 -35.4897 0 -1.0883 6.31071 7.10053 1.77636e-015 -38.2023 0 0.633812 -6.82187 -5.66257 0 -6.0207 13.8939 3.54085e-016 1.98785e-016 7.95139e-016 
0 0 0 0 0 -0 -15.8528 75.4773 -222.24 0.105336 -0.228191 -4.45313 0 7.59534 0 -0.076087 -6.85948 0.025114 0 23.5015 -2.84217e-014 0.912559 -1.23091 0.043364 0 23.405 2.12773 -3.06631 24.2457 -3.63638 0 12.9677 -1.85252 0.452467 1.13205 -3.96512 3.62206 22.4732 -0.132728 12.5222 1.93323 13.8493 8.17784 2.84217e-014 2.84217e-014 -18.6389 4.68911 -4.82745 30.104 0 0 2.04166 0.343734 -1.18065 24.4664 0 0 -1.5694 0.396689 -2.32548 -3.6336 22.4732 -0.132728 -8.71697 2.13796 19.1878 -8.17784 0 0 15.639 -0.001468 -2.99587 -30.104 2.84217e-014 0 -2.18928 0.973268 2.48327 -24.4664 2.84217e-014 2.84217e-014 -1.19275 1.01157 0.875643 9.26261 0 0 2.23898 10.9407 -1.82734 0 -35.4897 2.84217e-014 -0.817208 -6.83204 -2.85291 0 -38.2023 -2.84217e-014 -0.230509 -3.69083 16.868 0 -6.0207 13.8939 -1.14922e-016 -4.96962e-017 1.59028e-015 -9.26261 -1.42109e-014 -2.84217e-014 -2.86183 1.11226 0.861156 0 -35.4897 -2.84217e-014 -1.0987 6.29171 7.21514 0 -38.2023 -2.84217e-014 0.666328 -6.82088 -5.7461 0 -6.0207 13.8939 5.2181e-016 1.98785e-016 3.97569e-016 
0 0 0 0 0 -0 -15.8528 75.4773 -222.24 0.105257 -0.229211 -4.45313 -7.10543e-015 7.59534 -2.84217e-014 -0.076087 -6.85948 0.025114 0 23.5015 0 0.899989 -1.23091 0.043364 0 23.405 2.12773 -3.05269 24.2319 -3.63599 7.10543e-015 12.9677 -1.85252 0.428764 1.14661 -3.96305 3.62206 22.4732 -0.132728 12.5228 1.93086 13.8493 8.17784 0 0 -18.6309 4.72623 -4.82771 30.104 0 0 2.06976 0.292518 -1.19129 24.4664 0 -2.84217e-014 -1.62781 0.345884 -2.22458 -3.6336 22.4732 -0.132728 -8.70452 2.11838 19.2023 -8.17784 0 -2.84217e-014 15.6346 0.009092 -3.01 -30.104 0 0 -2.17869 0.989445 2.47509 -24.4664 0 0 -1.21923 1.02729 0.872328 9.26261 0 -2.84217e-014 2.23118 10.9405 -1.84808 -3.55271e-015 -35.4897 -2.84217e-014 -0.813948 -6.84289 -2.81815 -7.10543e-015 -38.2023 -2.84217e-014 -0.21787 -3.68974 16.8495 0 -6.0207 13.8939 1.55301e-017 -4.96962e-017 -3.18055e-015 -9.26261 0 -2.84217e-014 -2.87894 1.11226 0.876712 0 -35.4897 -2.84217e-014 -1.07777 6.28947 7.13822 1.77636e-015 -38.2023 0 0.645905 -6.82164 -5.68216 0 -6.0207 13.8939 -8.07563e-017 -1.98785e-016 -0 
0 0 0 0 0 -0 -15.8528 75.4773 -222.238 0.106136 -0.217928 -4.45313 0 7.59534 0 -0.076087 -6.85948 0.025114 7.10543e-015 23.5015 0 0.911112 -1.23091 0.043364 0 23.405 2.12773 -3.05927 24.2113 -3.63155 0 12.9677 -1.85252 0.415708 1.19944 -3.96027 3.62206 22.4732 -0.132728 12.5168 1.95495 13.8495 8.17784 0 2.84217e-014 -18.6382 4.72387 -4.83161 30.104 -2.84217e-014 -2.84217e-014 2.05627 0.350237 -1.17304 24.4664 0 0 -1.58105 0.403304 -2.30623 -3.6336 22.4732 -0.132728 -8.7121 2.17166 19.193 -8.17784 0 -2.84217e-014 15.6217 -0.029778 -2.97432 -30.104 2.84217e-014 0 -2.17814 1.00873 2.46996 -24.4664 -2.84217e-014 0 -1.21463 1.04658 0.858988 9.26261 0 -2.84217e-014 2.23333 10.9322 -1.79755 0 -35.4897 0 -0.806942 -6.84438 -2.79609 0 -38.2023 0 -0.315824 -3.6896 16.8041 0 -6.0207 13.8939 -1.2424e-017 2.48481e-017 -1.59028e-015 -9.26261 0 -2.84217e-014 -2.86559 1.10852 0.887419 0 -35.4897 0 -1.08753 6.28223 7.16482 3.55271e-015 -38.2023 0 0.627123 -6.82138 -5.7037 0 -6.0207 13.8939 6.42944e-016 1.98785e-016 -7.95139e-016 
0 0 0 0 0 -0 -15.8528 75.4773 -222.235 0.104862 -0.234413 -4.45069 0 7.59534 2.84217e-014 -0.074172 -6.84517 0.026843 0 23.5015 0 0.916932 -1.22858 0.043364 0 23.405 2.12773 -3.08403 24.2202 -3.62039 -7.10543e-015 12.9677 -1.85252 0.437218 1.19792 -3.94796 3.62206 22.4732 -0.132728 12.5119 1.97478 13.8496 8.17784 0 0 -18.6432 4.70914 -4.84737 30.104 0 0 2.05069 0.362109 -1.16521 24.4664 -2.84217e-014 0 -1.54492 0.413736 -2.28389 -3.6336 22.4732 -0.132728 -8.72795 2.18403 19.2009 -8.17784 2.84217e-014 0 15.6269 -0.049375 -2.97074 -30.104 0 0 -2.16721 1.02589 2.45776 -24.4664 -2.84217e-014 0 -1.2409 1.06312 0.857962 9.26261 -2.84217e-014 0 2.25804 10.9265 -1.87766 -3.55271e-015 -35.4897 0 -0.837774 -6.79673 -2.87598 0 -38.2023 2.84217e-014 -0.217504 -3.70082 16.9079 0 -6.0207 13.8939 6.52262e-017 0 -0 -9.26261 -1.42109e-014 0 -2.86119 1.12773 0.85962 0 -35.4897 2.84217e-014 -1.09354 6.28114 7.10246 -1.77636e-015 -38.2023 2.84217e-014 0.599724 -6.82223 -5.63173 0 -6.0207 13.8939 1.42876e-016 9.93923e-017 -3.97569e-016 
